<svg width="22" height="23" viewBox="0 0 22 23" fill="none" xmlns="http://www.w3.org/2000/svg">
<g clip-path="url(#clip0_26_98)">
<path d="M14.41 11.2626C14.41 12.1691 14.0499 13.0385 13.4089 13.6795C12.768 14.3204 11.8986 14.6805 10.9921 14.6805C10.0856 14.6805 9.21628 14.3204 8.5753 13.6795C7.93432 13.0385 7.57422 12.1691 7.57422 11.2626C7.57422 10.3561 7.93432 9.48679 8.5753 8.84581C9.21628 8.20483 10.0856 7.84473 10.9921 7.84473C11.8986 7.84473 12.768 8.20483 13.4089 8.84581C14.0499 9.48679 14.41 10.3561 14.41 11.2626Z" fill="#7D6B7D"/>
<path d="M0.0546875 11.2628C0.0546875 11.2628 4.15617 3.74341 10.992 3.74341C17.8278 3.74341 21.9293 11.2628 21.9293 11.2628C21.9293 11.2628 17.8278 18.7822 10.992 18.7822C4.15617 18.7822 0.0546875 11.2628 0.0546875 11.2628ZM10.992 16.0479C12.2611 16.0479 13.4782 15.5437 14.3755 14.6463C15.2729 13.749 15.777 12.5319 15.777 11.2628C15.777 9.99372 15.2729 8.77662 14.3755 7.87924C13.4782 6.98187 12.2611 6.47773 10.992 6.47773C9.7229 6.47773 8.5058 6.98187 7.60843 7.87924C6.71105 8.77662 6.20691 9.99372 6.20691 11.2628C6.20691 12.5319 6.71105 13.749 7.60843 14.6463C8.5058 15.5437 9.7229 16.0479 10.992 16.0479Z" fill="#7D6B7D"/>
</g>
<defs>
<clipPath id="clip0_26_98">
<rect width="21.8746" height="21.8746" fill="white" transform="translate(0.0546875 0.325439)"/>
</clipPath>
</defs>
</svg>
