<svg width="22" height="22" viewBox="0 0 22 22" fill="none" xmlns="http://www.w3.org/2000/svg">
<g clip-path="url(#clip0_26_329)">
<path d="M14.1792 10.5784C14.1792 11.4546 13.8311 12.295 13.2115 12.9146C12.5919 13.5342 11.7515 13.8823 10.8752 13.8823C9.99898 13.8823 9.1586 13.5342 8.53899 12.9146C7.91938 12.295 7.57129 11.4546 7.57129 10.5784C7.57129 9.7021 7.91938 8.86173 8.53899 8.24212C9.1586 7.62251 9.99898 7.27441 10.8752 7.27441C11.7515 7.27441 12.5919 7.62251 13.2115 8.24212C13.8311 8.86173 14.1792 9.7021 14.1792 10.5784Z" fill="#7D6B7D"/>
<path d="M0.302734 10.5783C0.302734 10.5783 4.26748 3.30957 10.8754 3.30957C17.4833 3.30957 21.448 10.5783 21.448 10.5783C21.448 10.5783 17.4833 17.847 10.8754 17.847C4.26748 17.847 0.302734 10.5783 0.302734 10.5783ZM10.8754 15.2038C12.1021 15.2038 13.2787 14.7165 14.1461 13.849C15.0136 12.9816 15.5009 11.805 15.5009 10.5783C15.5009 9.3515 15.0136 8.17497 14.1461 7.30752C13.2787 6.44006 12.1021 5.95273 10.8754 5.95273C9.64861 5.95273 8.47209 6.44006 7.60463 7.30752C6.73718 8.17497 6.24985 9.3515 6.24985 10.5783C6.24985 11.805 6.73718 12.9816 7.60463 13.849C8.47209 14.7165 9.64861 15.2038 10.8754 15.2038Z" fill="#7D6B7D"/>
</g>
<defs>
<clipPath id="clip0_26_329">
<rect width="21.1453" height="21.1453" fill="white" transform="translate(0.302734 0.00585938)"/>
</clipPath>
</defs>
</svg>
