<svg width="27" height="27" viewBox="0 0 27 27" fill="none" xmlns="http://www.w3.org/2000/svg">
<g clip-path="url(#clip0_26_278)">
<path d="M17.3137 13.7218C17.3137 14.8148 16.8795 15.8631 16.1066 16.6359C15.3338 17.4088 14.2855 17.843 13.1925 17.843C12.0995 17.843 11.0512 17.4088 10.2784 16.6359C9.50549 15.8631 9.07129 14.8148 9.07129 13.7218C9.07129 12.6288 9.50549 11.5805 10.2784 10.8077C11.0512 10.0348 12.0995 9.60059 13.1925 9.60059C14.2855 9.60059 15.3338 10.0348 16.1066 10.8077C16.8795 11.5805 17.3137 12.6288 17.3137 13.7218Z" fill="#7D6B7D"/>
<path d="M0.00488281 13.7219C0.00488281 13.7219 4.95033 4.65527 13.1927 4.65527C21.4352 4.65527 26.3806 13.7219 26.3806 13.7219C26.3806 13.7219 21.4352 22.7886 13.1927 22.7886C4.95033 22.7886 0.00488281 13.7219 0.00488281 13.7219ZM13.1927 19.4916C14.723 19.4916 16.1905 18.8837 17.2725 17.8017C18.3546 16.7197 18.9624 15.2521 18.9624 13.7219C18.9624 12.1917 18.3546 10.7242 17.2725 9.64214C16.1905 8.56012 14.723 7.95224 13.1927 7.95224C11.6625 7.95224 10.195 8.56012 9.11296 9.64214C8.03093 10.7242 7.42306 12.1917 7.42306 13.7219C7.42306 15.2521 8.03093 16.7197 9.11296 17.8017C10.195 18.8837 11.6625 19.4916 13.1927 19.4916Z" fill="#7D6B7D"/>
</g>
<defs>
<clipPath id="clip0_26_278">
<rect width="26.3757" height="26.3757" fill="white" transform="translate(0.00488281 0.53418)"/>
</clipPath>
</defs>
</svg>
