<svg width="17" height="17" viewBox="0 0 17 17" fill="none" xmlns="http://www.w3.org/2000/svg">
<g clip-path="url(#clip0_26_547)">
<path d="M10.8471 8.62324C10.8471 9.28996 10.5822 9.92937 10.1108 10.4008C9.63933 10.8723 8.99992 11.1371 8.3332 11.1371C7.66648 11.1371 7.02707 10.8723 6.55563 10.4008C6.08419 9.92937 5.81934 9.28996 5.81934 8.62324C5.81934 7.95652 6.08419 7.31711 6.55563 6.84567C7.02707 6.37423 7.66648 6.10938 8.3332 6.10938C8.99992 6.10938 9.63933 6.37423 10.1108 6.84567C10.5822 7.31711 10.8471 7.95652 10.8471 8.62324Z" fill="#7D6B7D"/>
<path d="M0.289062 8.62328C0.289062 8.62328 3.3057 3.09277 8.33344 3.09277C13.3612 3.09277 16.3778 8.62328 16.3778 8.62328C16.3778 8.62328 13.3612 14.1538 8.33344 14.1538C3.3057 14.1538 0.289062 8.62328 0.289062 8.62328ZM8.33344 12.1427C9.26685 12.1427 10.162 11.7719 10.822 11.1119C11.4821 10.4519 11.8529 9.55669 11.8529 8.62328C11.8529 7.68988 11.4821 6.7947 10.822 6.13468C10.162 5.47466 9.26685 5.10387 8.33344 5.10387C7.40003 5.10387 6.50486 5.47466 5.84484 6.13468C5.18482 6.7947 4.81402 7.68988 4.81402 8.62328C4.81402 9.55669 5.18482 10.4519 5.84484 11.1119C6.50486 11.7719 7.40003 12.1427 8.33344 12.1427Z" fill="#7D6B7D"/>
</g>
<defs>
<clipPath id="clip0_26_547">
<rect width="16.0888" height="16.0888" fill="white" transform="translate(0.289062 0.579102)"/>
</clipPath>
</defs>
</svg>
