<svg width="17" height="17" viewBox="0 0 17 17" fill="none" xmlns="http://www.w3.org/2000/svg">
<g clip-path="url(#clip0_26_505)">
<path d="M10.9398 8.62324C10.9398 9.28996 10.675 9.92937 10.2035 10.4008C9.73211 10.8723 9.0927 11.1371 8.42598 11.1371C7.75926 11.1371 7.11985 10.8723 6.6484 10.4008C6.17696 9.92937 5.91211 9.28996 5.91211 8.62324C5.91211 7.95652 6.17696 7.31711 6.6484 6.84567C7.11985 6.37423 7.75926 6.10938 8.42598 6.10938C9.0927 6.10938 9.73211 6.37423 10.2035 6.84567C10.675 7.31711 10.9398 7.95652 10.9398 8.62324Z" fill="#7D6B7D"/>
<path d="M0.381836 8.62328C0.381836 8.62328 3.39848 3.09277 8.42621 3.09277C13.4539 3.09277 16.4706 8.62328 16.4706 8.62328C16.4706 8.62328 13.4539 14.1538 8.42621 14.1538C3.39848 14.1538 0.381836 8.62328 0.381836 8.62328ZM8.42621 12.1427C9.35962 12.1427 10.2548 11.7719 10.9148 11.1119C11.5748 10.4519 11.9456 9.55669 11.9456 8.62328C11.9456 7.68988 11.5748 6.7947 10.9148 6.13468C10.2548 5.47466 9.35962 5.10387 8.42621 5.10387C7.49281 5.10387 6.59763 5.47466 5.93761 6.13468C5.27759 6.7947 4.9068 7.68988 4.9068 8.62328C4.9068 9.55669 5.27759 10.4519 5.93761 11.1119C6.59763 11.7719 7.49281 12.1427 8.42621 12.1427Z" fill="#7D6B7D"/>
</g>
<defs>
<clipPath id="clip0_26_505">
<rect width="16.0888" height="16.0888" fill="white" transform="translate(0.381836 0.579102)"/>
</clipPath>
</defs>
</svg>
