<svg width="22" height="22" viewBox="0 0 22 22" fill="none" xmlns="http://www.w3.org/2000/svg">
<g clip-path="url(#clip0_26_380)">
<path d="M14.2602 10.5784C14.2602 11.4546 13.9122 12.295 13.2925 12.9146C12.6729 13.5342 11.8326 13.8823 10.9563 13.8823C10.08 13.8823 9.23966 13.5342 8.62005 12.9146C8.00044 12.295 7.65234 11.4546 7.65234 10.5784C7.65234 9.7021 8.00044 8.86173 8.62005 8.24212C9.23966 7.62251 10.08 7.27441 10.9563 7.27441C11.8326 7.27441 12.6729 7.62251 13.2925 8.24212C13.9122 8.86173 14.2602 9.7021 14.2602 10.5784Z" fill="#7D6B7D"/>
<path d="M0.383789 10.5783C0.383789 10.5783 4.34853 3.30957 10.9564 3.30957C17.5643 3.30957 21.5291 10.5783 21.5291 10.5783C21.5291 10.5783 17.5643 17.847 10.9564 17.847C4.34853 17.847 0.383789 10.5783 0.383789 10.5783ZM10.9564 15.2038C12.1832 15.2038 13.3597 14.7165 14.2272 13.849C15.0946 12.9816 15.582 11.805 15.582 10.5783C15.582 9.3515 15.0946 8.17497 14.2272 7.30752C13.3597 6.44006 12.1832 5.95273 10.9564 5.95273C9.72966 5.95273 8.55314 6.44006 7.68569 7.30752C6.81823 8.17497 6.3309 9.3515 6.3309 10.5783C6.3309 11.805 6.81823 12.9816 7.68569 13.849C8.55314 14.7165 9.72966 15.2038 10.9564 15.2038Z" fill="#7D6B7D"/>
</g>
<defs>
<clipPath id="clip0_26_380">
<rect width="21.1453" height="21.1453" fill="white" transform="translate(0.383789 0.00585938)"/>
</clipPath>
</defs>
</svg>
