<svg width="30" height="30" viewBox="0 0 30 30" fill="none" xmlns="http://www.w3.org/2000/svg">
<g clip-path="url(#clip0_26_62)">
<path d="M22.016 19.395C23.8315 16.9175 24.6447 13.8459 24.2928 10.7947C23.9409 7.7434 22.4499 4.93752 20.118 2.93837C17.7862 0.939232 14.7855 -0.105738 11.7163 0.0125242C8.64709 0.130786 5.7357 1.40356 3.56461 3.57621C1.39351 5.74885 0.122825 8.66115 0.00675912 11.7304C-0.109307 14.7997 0.93781 17.7997 2.93862 20.1301C4.93943 22.4605 7.74638 23.9495 10.7979 24.2992C13.8494 24.6489 16.9204 23.8336 19.3966 22.0163H19.3947C19.451 22.0913 19.511 22.1625 19.5785 22.2319L26.7972 29.4506C27.1488 29.8025 27.6257 30.0002 28.1231 30.0004C28.6205 30.0006 29.0976 29.8031 29.4494 29.4516C29.8012 29.1 29.999 28.623 29.9992 28.1257C29.9993 27.6283 29.8019 27.1512 29.4504 26.7994L22.2316 19.5806C22.1646 19.5128 22.0925 19.4501 22.016 19.3931V19.395ZM22.4997 12.1875C22.4997 13.5418 22.233 14.8828 21.7147 16.1339C21.1965 17.3851 20.4369 18.5219 19.4793 19.4795C18.5217 20.4371 17.3848 21.1968 16.1337 21.715C14.8825 22.2333 13.5415 22.5 12.1872 22.5C10.833 22.5 9.49198 22.2333 8.24081 21.715C6.98964 21.1968 5.8528 20.4371 4.89519 19.4795C3.93759 18.5219 3.17797 17.3851 2.65972 16.1339C2.14147 14.8828 1.87473 13.5418 1.87473 12.1875C1.87473 9.45246 2.96122 6.82944 4.89519 4.89547C6.82916 2.9615 9.45219 1.87501 12.1872 1.87501C14.9223 1.87501 17.5453 2.9615 19.4793 4.89547C21.4132 6.82944 22.4997 9.45246 22.4997 12.1875Z" fill="#6C757D"/>
</g>
<defs>
<clipPath id="clip0_26_62">
<rect width="30" height="30" fill="white"/>
</clipPath>
</defs>
</svg>
