<svg width="28" height="29" viewBox="0 0 28 29" fill="none" xmlns="http://www.w3.org/2000/svg">
<path d="M6.99602 18.1932C9.16682 18.1932 10.9266 16.4334 10.9266 14.2626C10.9266 12.0918 9.16682 10.332 6.99602 10.332C4.82521 10.332 3.06543 12.0918 3.06543 14.2626C3.06543 16.4334 4.82521 18.1932 6.99602 18.1932Z" stroke="#3C4852" stroke-width="1.82288" stroke-linecap="round" stroke-linejoin="round"/>
<path d="M20.9716 25.181C23.1424 25.181 24.9022 23.4212 24.9022 21.2504C24.9022 19.0796 23.1424 17.3198 20.9716 17.3198C18.8008 17.3198 17.041 19.0796 17.041 21.2504C17.041 23.4212 18.8008 25.181 20.9716 25.181Z" stroke="#3C4852" stroke-width="1.82288" stroke-linecap="round" stroke-linejoin="round"/>
<path d="M20.9716 11.2057C23.1424 11.2057 24.9022 9.44587 24.9022 7.27507C24.9022 5.10427 23.1424 3.34448 20.9716 3.34448C18.8008 3.34448 17.041 5.10427 17.041 7.27507C17.041 9.44587 18.8008 11.2057 20.9716 11.2057Z" stroke="#3C4852" stroke-width="1.82288" stroke-linecap="round" stroke-linejoin="round"/>
<path d="M10.4902 12.5158L17.4779 9.02197M10.4902 16.0097L17.4779 19.5035L10.4902 16.0097Z" stroke="#3C4852" stroke-width="1.82288" stroke-linecap="round" stroke-linejoin="round"/>
</svg>
