<svg width="28" height="29" viewBox="0 0 28 29" fill="none" xmlns="http://www.w3.org/2000/svg">
<path d="M6.99699 18.1932C9.1678 18.1932 10.9276 16.4334 10.9276 14.2626C10.9276 12.0918 9.1678 10.332 6.99699 10.332C4.82619 10.332 3.06641 12.0918 3.06641 14.2626C3.06641 16.4334 4.82619 18.1932 6.99699 18.1932Z" stroke="#3C4852" stroke-width="1.82288" stroke-linecap="round" stroke-linejoin="round"/>
<path d="M20.9726 25.181C23.1434 25.181 24.9032 23.4212 24.9032 21.2504C24.9032 19.0796 23.1434 17.3198 20.9726 17.3198C18.8018 17.3198 17.042 19.0796 17.042 21.2504C17.042 23.4212 18.8018 25.181 20.9726 25.181Z" stroke="#3C4852" stroke-width="1.82288" stroke-linecap="round" stroke-linejoin="round"/>
<path d="M20.9726 11.2057C23.1434 11.2057 24.9032 9.44587 24.9032 7.27507C24.9032 5.10427 23.1434 3.34448 20.9726 3.34448C18.8018 3.34448 17.042 5.10427 17.042 7.27507C17.042 9.44587 18.8018 11.2057 20.9726 11.2057Z" stroke="#3C4852" stroke-width="1.82288" stroke-linecap="round" stroke-linejoin="round"/>
<path d="M10.4912 12.5158L17.4789 9.02197M10.4912 16.0097L17.4789 19.5035L10.4912 16.0097Z" stroke="#3C4852" stroke-width="1.82288" stroke-linecap="round" stroke-linejoin="round"/>
</svg>
