<svg width="81" height="81" viewBox="0 0 81 81" fill="none" xmlns="http://www.w3.org/2000/svg">
<path d="M40.5 74.25C21.8599 74.25 6.75 59.1401 6.75 40.5C6.75 21.8599 21.8599 6.75 40.5 6.75C59.1401 6.75 74.25 21.8599 74.25 40.5C74.2298 59.13 59.13 74.2298 40.5 74.25ZM13.5 41.0805C13.5767 48.2158 16.4749 55.0306 21.5611 60.0354C26.6473 65.0403 33.508 67.8282 40.6436 67.7899C47.7792 67.7515 54.6094 64.89 59.6416 59.8308C64.6737 54.7715 67.4984 47.926 67.4984 40.7903C67.4984 33.6545 64.6737 26.809 59.6416 21.7497C54.6094 16.6905 47.7792 13.829 40.6436 13.7906C33.508 13.7523 26.6473 16.5402 21.5611 21.5451C16.4749 26.5499 13.5767 33.3647 13.5 40.5V41.0805ZM33.75 55.6875V25.3125L54 40.5L33.75 55.6875Z" fill="white"/>
</svg>
