<svg width="27" height="27" viewBox="0 0 27 27" fill="none" xmlns="http://www.w3.org/2000/svg">
<g clip-path="url(#clip0_26_288)">
<path d="M20.6966 18.1178C20.2031 18.1197 19.7151 18.2213 19.2619 18.4164C18.8086 18.6116 18.3995 18.8963 18.059 19.2534L9.12788 14.7842C9.34758 14.1181 9.34758 13.3989 9.12788 12.7328L18.0737 8.18297C18.7144 8.85821 19.5834 9.27108 20.5116 9.34134C21.4398 9.4116 22.361 9.13423 23.0961 8.56314C23.8312 7.99204 24.3277 7.16803 24.4891 6.25126C24.6505 5.33448 24.4653 4.39044 23.9694 3.60263C23.4736 2.81481 22.7025 2.23951 21.8061 1.98853C20.9097 1.73755 19.952 1.82883 19.1191 2.24463C18.2863 2.66043 17.6378 3.37103 17.2997 4.23834C16.9616 5.10564 16.958 6.06767 17.2897 6.93745L8.43186 11.4433C7.95347 10.8582 7.30583 10.4354 6.57773 10.2329C5.84962 10.0303 5.0767 10.0579 4.36489 10.3119C3.65309 10.5659 3.03725 11.0338 2.60181 11.6515C2.16636 12.2692 1.93262 13.0064 1.93262 13.7622C1.93262 14.5179 2.16636 15.2552 2.60181 15.8729C3.03725 16.4906 3.65309 16.9585 4.36489 17.2124C5.0767 17.4664 5.84962 17.494 6.57773 17.2914C7.30583 17.0889 7.95347 16.6661 8.43186 16.081L17.2677 20.5283C17.1184 20.9291 17.0415 21.3534 17.0406 21.7811C17.0406 22.5057 17.2555 23.2139 17.658 23.8163C18.0605 24.4188 18.6326 24.8883 19.302 25.1656C19.9714 25.4428 20.708 25.5154 21.4186 25.374C22.1292 25.2327 22.7819 24.8838 23.2942 24.3715C23.8066 23.8591 24.1555 23.2064 24.2968 22.4958C24.4382 21.7852 24.3656 21.0486 24.0883 20.3792C23.8111 19.7099 23.3415 19.1377 22.7391 18.7352C22.1367 18.3327 21.4284 18.1178 20.7039 18.1178H20.6966Z" fill="#7D6B7D"/>
</g>
<defs>
<clipPath id="clip0_26_288">
<rect width="26.3757" height="26.3757" fill="white" transform="translate(0.526367 0.53418)"/>
</clipPath>
</defs>
</svg>
