<svg width="17" height="17" viewBox="0 0 17 17" fill="none" xmlns="http://www.w3.org/2000/svg">
<path d="M12.6781 11.3052C12.3771 11.3063 12.0794 11.3683 11.803 11.4873C11.5265 11.6063 11.2769 11.78 11.0692 11.9979L5.62142 9.27174C5.75543 8.86538 5.75543 8.42674 5.62142 8.02039L11.0782 5.24508C11.469 5.65696 11.9991 5.90881 12.5653 5.95167C13.1315 5.99453 13.6934 5.82533 14.1418 5.47698C14.5902 5.12862 14.893 4.62598 14.9915 4.06677C15.09 3.50755 14.977 2.9317 14.6745 2.45115C14.372 1.97059 13.9017 1.61967 13.3549 1.46657C12.8081 1.31348 12.2239 1.36916 11.7159 1.62279C11.2079 1.87642 10.8123 2.30988 10.6061 2.83892C10.3998 3.36796 10.3977 3.95478 10.6 4.48533L5.19685 7.23383C4.90504 6.87695 4.50999 6.61905 4.06586 6.4955C3.62173 6.37195 3.15026 6.38878 2.71607 6.54369C2.28188 6.69861 1.90623 6.98402 1.64062 7.3608C1.375 7.73759 1.23242 8.1873 1.23242 8.6483C1.23242 9.10929 1.375 9.55901 1.64062 9.93579C1.90623 10.3126 2.28188 10.598 2.71607 10.7529C3.15026 10.9078 3.62173 10.9246 4.06586 10.8011C4.50999 10.6775 4.90504 10.4196 5.19685 10.0628L10.5866 12.7755C10.4955 13.02 10.4486 13.2788 10.448 13.5397C10.448 13.9817 10.5791 14.4137 10.8246 14.7812C11.0702 15.1486 11.4192 15.4351 11.8275 15.6042C12.2358 15.7733 12.6851 15.8176 13.1185 15.7313C13.552 15.6451 13.9501 15.4323 14.2627 15.1198C14.5752 14.8073 14.788 14.4091 14.8742 13.9757C14.9604 13.5422 14.9162 13.0929 14.747 12.6846C14.5779 12.2763 14.2915 11.9273 13.924 11.6818C13.5566 11.4362 13.1245 11.3052 12.6826 11.3052H12.6781Z" fill="#7D6B7D"/>
</svg>
