<svg width="23" height="23" viewBox="0 0 23 23" fill="none" xmlns="http://www.w3.org/2000/svg">
<g clip-path="url(#clip0_26_108)">
<path d="M17.4221 14.9085C17.0129 14.91 16.6082 14.9943 16.2323 15.1561C15.8564 15.3179 15.5171 15.5541 15.2347 15.8503L7.82771 12.1438C8.00992 11.5913 8.00992 10.9949 7.82771 10.4424L15.2468 6.66904C15.7783 7.22905 16.4989 7.57146 17.2687 7.62973C18.0385 7.688 18.8025 7.45797 19.4122 6.98433C20.0218 6.5107 20.4336 5.82731 20.5675 5.06699C20.7013 4.30666 20.5477 3.52373 20.1365 2.87036C19.7252 2.21699 19.0857 1.73986 18.3423 1.53172C17.5989 1.32357 16.8046 1.39927 16.1139 1.74411C15.4232 2.08895 14.8854 2.67829 14.605 3.39758C14.3245 4.11687 14.3216 4.91473 14.5967 5.63608L7.25046 9.37298C6.85371 8.88776 6.3166 8.53712 5.71275 8.36914C5.1089 8.20115 4.46788 8.22404 3.87755 8.43466C3.28722 8.64529 2.77648 9.03334 2.41534 9.54562C2.05421 10.0579 1.86035 10.6693 1.86035 11.2961C1.86035 11.9229 2.05421 12.5343 2.41534 13.0466C2.77648 13.5589 3.28722 13.947 3.87755 14.1576C4.46788 14.3682 5.1089 14.3911 5.71275 14.2231C6.3166 14.0551 6.85371 13.7045 7.25046 13.2193L14.5784 16.9076C14.4546 17.24 14.3909 17.5918 14.3901 17.9466C14.3901 18.5475 14.5683 19.1349 14.9021 19.6345C15.2359 20.1341 15.7104 20.5235 16.2656 20.7535C16.8207 20.9834 17.4316 21.0436 18.0209 20.9264C18.6103 20.8091 19.1516 20.5198 19.5765 20.0949C20.0014 19.67 20.2908 19.1287 20.408 18.5393C20.5252 17.95 20.465 17.3391 20.2351 16.784C20.0051 16.2288 19.6157 15.7543 19.1161 15.4205C18.6165 15.0866 18.0291 14.9085 17.4282 14.9085H17.4221Z" fill="#7D6B7D"/>
</g>
<defs>
<clipPath id="clip0_26_108">
<rect width="21.8746" height="21.8746" fill="white" transform="translate(0.694336 0.325439)"/>
</clipPath>
</defs>
</svg>
