<svg width="17" height="17" viewBox="0 0 17 17" fill="none" xmlns="http://www.w3.org/2000/svg">
<path d="M12.7709 11.3052C12.4699 11.3063 12.1722 11.3683 11.8958 11.4873C11.6193 11.6063 11.3697 11.78 11.162 11.9979L5.71419 9.27174C5.8482 8.86538 5.8482 8.42674 5.71419 8.02039L11.171 5.24508C11.5618 5.65696 12.0919 5.90881 12.658 5.95167C13.2242 5.99453 13.7862 5.82533 14.2346 5.47698C14.683 5.12862 14.9858 4.62598 15.0843 4.06677C15.1827 3.50755 15.0697 2.9317 14.7673 2.45115C14.4648 1.97059 13.9945 1.61967 13.4477 1.46657C12.9009 1.31348 12.3167 1.36916 11.8087 1.62279C11.3007 1.87642 10.9051 2.30988 10.6988 2.83892C10.4926 3.36796 10.4904 3.95478 10.6928 4.48533L5.28962 7.23383C4.99781 6.87695 4.60277 6.61905 4.15864 6.4955C3.7145 6.37195 3.24303 6.38878 2.80884 6.54369C2.37465 6.69861 1.99901 6.98402 1.73339 7.3608C1.46778 7.73759 1.3252 8.1873 1.3252 8.6483C1.3252 9.10929 1.46778 9.55901 1.73339 9.93579C1.99901 10.3126 2.37465 10.598 2.80884 10.7529C3.24303 10.9078 3.7145 10.9246 4.15864 10.8011C4.60277 10.6775 4.99781 10.4196 5.28962 10.0628L10.6794 12.7755C10.5883 13.02 10.5414 13.2788 10.5408 13.5397C10.5408 13.9817 10.6719 14.4137 10.9174 14.7812C11.1629 15.1486 11.5119 15.4351 11.9202 15.6042C12.3285 15.7733 12.7778 15.8176 13.2113 15.7313C13.6448 15.6451 14.0429 15.4323 14.3554 15.1198C14.6679 14.8073 14.8808 14.4091 14.967 13.9757C15.0532 13.5422 15.0089 13.0929 14.8398 12.6846C14.6707 12.2763 14.3843 11.9273 14.0168 11.6818C13.6493 11.4362 13.2173 11.3052 12.7754 11.3052H12.7709Z" fill="#7D6B7D"/>
</svg>
