<svg width="22" height="22" viewBox="0 0 22 22" fill="none" xmlns="http://www.w3.org/2000/svg">
<g clip-path="url(#clip0_26_339)">
<path d="M16.7568 14.1032C16.3612 14.1047 15.97 14.1861 15.6066 14.3426C15.2433 14.499 14.9153 14.7273 14.6423 15.0136L7.48228 11.4307C7.65841 10.8966 7.65841 10.3201 7.48228 9.78602L14.6541 6.13846C15.1678 6.67979 15.8644 7.01079 16.6085 7.06712C17.3527 7.12345 18.0912 6.90108 18.6805 6.44324C19.2698 5.98539 19.6679 5.32479 19.7973 4.58981C19.9267 3.85484 19.7782 3.09801 19.3807 2.46642C18.9831 1.83483 18.365 1.37361 17.6463 1.17241C16.9277 0.971198 16.1599 1.04438 15.4922 1.37772C14.8245 1.71106 14.3046 2.28075 14.0336 2.97606C13.7625 3.67138 13.7597 4.44263 14.0256 5.13993L6.92428 8.75225C6.54075 8.2832 6.02155 7.94426 5.43783 7.78187C4.85411 7.61949 4.23446 7.64161 3.66381 7.84521C3.09316 8.04882 2.59945 8.42393 2.25035 8.91913C1.90126 9.41434 1.71387 10.0054 1.71387 10.6113C1.71387 11.2172 1.90126 11.8082 2.25035 12.3034C2.59945 12.7986 3.09316 13.1737 3.66381 13.3773C4.23446 13.5809 4.85411 13.6031 5.43783 13.4407C6.02155 13.2783 6.54075 12.9393 6.92428 12.4703L14.0079 16.0356C13.8883 16.357 13.8266 16.6971 13.8259 17.04C13.8259 17.6209 13.9981 18.1887 14.3208 18.6716C14.6435 19.1546 15.1022 19.531 15.6388 19.7533C16.1755 19.9756 16.766 20.0338 17.3357 19.9204C17.9053 19.8071 18.4286 19.5274 18.8394 19.1167C19.2501 18.706 19.5298 18.1827 19.6431 17.613C19.7564 17.0433 19.6983 16.4528 19.476 15.9161C19.2537 15.3795 18.8773 14.9208 18.3943 14.5981C17.9114 14.2754 17.3436 14.1032 16.7627 14.1032H16.7568Z" fill="#7D6B7D"/>
</g>
<defs>
<clipPath id="clip0_26_339">
<rect width="21.1453" height="21.1453" fill="white" transform="translate(0.586914 0.00585938)"/>
</clipPath>
</defs>
</svg>
