<svg width="22" height="22" viewBox="0 0 22 22" fill="none" xmlns="http://www.w3.org/2000/svg">
<g clip-path="url(#clip0_26_390)">
<path d="M16.8379 14.1032C16.4423 14.1047 16.0511 14.1861 15.6877 14.3426C15.3243 14.499 14.9963 14.7273 14.7234 15.0136L7.56333 11.4307C7.73946 10.8966 7.73946 10.3201 7.56333 9.78602L14.7351 6.13846C15.2488 6.67979 15.9454 7.01079 16.6896 7.06712C17.4337 7.12345 18.1722 6.90108 18.7616 6.44324C19.3509 5.98539 19.7489 5.32479 19.8783 4.58981C20.0077 3.85484 19.8592 3.09801 19.4617 2.46642C19.0642 1.83483 18.446 1.37361 17.7274 1.17241C17.0087 0.971198 16.241 1.04438 15.5733 1.37772C14.9056 1.71106 14.3857 2.28075 14.1146 2.97606C13.8436 3.67138 13.8407 4.44263 14.1066 5.13993L7.00533 8.75225C6.62181 8.2832 6.1026 7.94426 5.51888 7.78187C4.93517 7.61949 4.31551 7.64161 3.74486 7.84521C3.17422 8.04882 2.6805 8.42393 2.33141 8.91913C1.98231 9.41434 1.79492 10.0054 1.79492 10.6113C1.79492 11.2172 1.98231 11.8082 2.33141 12.3034C2.6805 12.7986 3.17422 13.1737 3.74486 13.3773C4.31551 13.5809 4.93517 13.6031 5.51888 13.4407C6.1026 13.2783 6.62181 12.9393 7.00533 12.4703L14.089 16.0356C13.9693 16.357 13.9077 16.6971 13.9069 17.04C13.9069 17.6209 14.0792 18.1887 14.4019 18.6716C14.7246 19.1546 15.1832 19.531 15.7199 19.7533C16.2565 19.9756 16.847 20.0338 17.4167 19.9204C17.9864 19.8071 18.5097 19.5274 18.9204 19.1167C19.3312 18.706 19.6109 18.1827 19.7242 17.613C19.8375 17.0433 19.7793 16.4528 19.5571 15.9161C19.3348 15.3795 18.9583 14.9208 18.4754 14.5981C17.9924 14.2754 17.4246 14.1032 16.8438 14.1032H16.8379Z" fill="#7D6B7D"/>
</g>
<defs>
<clipPath id="clip0_26_390">
<rect width="21.1453" height="21.1453" fill="white" transform="translate(0.667969 0.00585938)"/>
</clipPath>
</defs>
</svg>
