<svg width="29" height="29" viewBox="0 0 29 29" fill="none" xmlns="http://www.w3.org/2000/svg">
<path d="M7.84165 3.78111V22.8576L13.1925 18.5758C13.6571 18.2042 14.2344 18.0017 14.8294 18.0017C15.4243 18.0017 16.0016 18.2042 16.4662 18.5758L21.8171 22.8558V3.78111H7.84165ZM6.96819 2.03418H22.6905C22.9222 2.03418 23.1444 2.12621 23.3082 2.29001C23.472 2.45382 23.564 2.67599 23.564 2.90764V24.6744C23.5638 24.8387 23.5172 24.9997 23.4296 25.1387C23.3419 25.2778 23.2169 25.3893 23.0687 25.4605C22.9206 25.5316 22.7553 25.5596 22.592 25.541C22.4287 25.5225 22.2739 25.4582 22.1455 25.3557L15.3744 19.9402C15.2196 19.8166 15.0274 19.7493 14.8294 19.7493C14.6313 19.7493 14.4391 19.8166 14.2843 19.9402L7.51323 25.3557C7.3848 25.4582 7.23003 25.5225 7.06672 25.541C6.90341 25.5596 6.73818 25.5316 6.59003 25.4605C6.44187 25.3893 6.3168 25.2778 6.22918 25.1387C6.14156 24.9997 6.09496 24.8387 6.09473 24.6744V2.90764C6.09473 2.67599 6.18675 2.45382 6.35056 2.29001C6.51436 2.12621 6.73653 2.03418 6.96819 2.03418Z" fill="#3C4852"/>
</svg>
