<svg width="30" height="23" viewBox="0 0 30 23" fill="none" xmlns="http://www.w3.org/2000/svg">
<g clip-path="url(#clip0_26_376)">
<path d="M12.8124 8.92164C12.0371 8.92164 11.4027 9.54939 11.4027 10.3166V13.8041C11.4027 14.1895 11.0873 14.5016 10.6979 14.5016C10.3085 14.5016 9.99304 14.1895 9.99304 13.8041V10.467C9.99304 9.70894 10.201 8.96436 10.5961 8.31394L14.0212 2.66462C14.4217 2.00373 14.2058 1.14712 13.538 0.750412C12.9014 0.372454 12.0966 0.562959 11.6745 1.15191C11.6657 1.16194 11.6472 1.16107 11.6397 1.17284L6.47411 8.84099C6.00891 9.53151 5.76398 10.3341 5.76398 11.1615V14.659L1.79395 15.9686C1.51323 16.061 1.26905 16.2385 1.09604 16.476C0.923029 16.7135 0.829975 16.9989 0.830078 17.2916V21.4767C0.830078 21.9483 1.20541 22.8717 2.23976 22.8717C2.35827 22.8717 2.47809 22.8568 2.59483 22.8268L10.4886 20.7944C12.6873 20.1723 14.2221 18.1587 14.2221 15.8966V10.3166C14.2221 9.54939 13.5877 8.92164 12.8124 8.92164ZM28.0599 15.9721L24.0899 14.6625V11.165C24.0899 10.3376 23.845 9.535 23.3798 8.84448L18.2141 1.17676C18.2062 1.16499 18.1882 1.1663 18.1793 1.15583C17.7573 0.566882 16.9525 0.376377 16.3159 0.754336C15.6481 1.1506 15.4322 2.00766 15.8327 2.66854L19.2578 8.31786C19.6529 8.96828 19.8608 9.71286 19.8608 10.471V13.8081C19.8608 14.1934 19.5454 14.5056 19.156 14.5056C18.7666 14.5056 18.4512 14.1934 18.4512 13.8081V10.3206C18.4512 9.55331 17.8168 8.92556 17.0415 8.92556C16.2661 8.92556 15.6318 9.55331 15.6318 10.3206V15.9006C15.6318 18.1627 17.1666 20.1763 19.3652 20.7979L27.259 22.8302C27.3762 22.8603 27.496 22.8751 27.6141 22.8751C28.6485 22.8751 29.0238 21.9518 29.0238 21.4801V17.2951C29.0238 16.6948 28.6357 16.1621 28.0599 15.9721Z" fill="url(#paint0_linear_26_376)"/>
</g>
<defs>
<linearGradient id="paint0_linear_26_376" x1="14.9269" y1="0.555176" x2="14.9269" y2="22.8751" gradientUnits="userSpaceOnUse">
<stop stop-color="#FD3A84"/>
<stop offset="1" stop-color="#FFA68D"/>
</linearGradient>
<clipPath id="clip0_26_376">
<rect width="28.1937" height="22.32" fill="white" transform="translate(0.830078 0.555664)"/>
</clipPath>
</defs>
</svg>
