<svg width="29" height="23" viewBox="0 0 29 23" fill="none" xmlns="http://www.w3.org/2000/svg">
<g clip-path="url(#clip0_26_325)">
<path d="M12.7314 8.92164C11.956 8.92164 11.3217 9.54939 11.3217 10.3166V13.8041C11.3217 14.1895 11.0063 14.5016 10.6168 14.5016C10.2274 14.5016 9.91198 14.1895 9.91198 13.8041V10.467C9.91198 9.70894 10.1199 8.96436 10.5151 8.31394L13.9402 2.66462C14.3406 2.00373 14.1247 1.14712 13.4569 0.750412C12.8203 0.372454 12.0155 0.562959 11.5935 1.15191C11.5847 1.16194 11.5662 1.16107 11.5587 1.17284L6.39305 8.84099C5.92786 9.53151 5.68292 10.3341 5.68292 11.1615V14.659L1.7129 15.9686C1.43218 16.061 1.188 16.2385 1.01498 16.476C0.841974 16.7135 0.748921 16.9989 0.749024 17.2916V21.4767C0.749024 21.9483 1.12435 22.8717 2.15871 22.8717C2.27721 22.8717 2.39703 22.8568 2.51377 22.8268L10.4076 20.7944C12.6062 20.1723 14.141 18.1587 14.141 15.8966V10.3166C14.141 9.54939 13.5067 8.92164 12.7314 8.92164ZM27.9789 15.9721L24.0088 14.6625V11.165C24.0088 10.3376 23.7639 9.535 23.2987 8.84448L18.1331 1.17676C18.1252 1.16499 18.1071 1.1663 18.0983 1.15583C17.6763 0.566882 16.8714 0.376377 16.2349 0.754336C15.567 1.1506 15.3512 2.00766 15.7516 2.66854L19.1767 8.31786C19.5719 8.96828 19.7798 9.71286 19.7798 10.471V13.8081C19.7798 14.1934 19.4644 14.5056 19.0749 14.5056C18.6855 14.5056 18.3701 14.1934 18.3701 13.8081V10.3206C18.3701 9.55331 17.7357 8.92556 16.9604 8.92556C16.1851 8.92556 15.5507 9.55331 15.5507 10.3206V15.9006C15.5507 18.1627 17.0855 20.1763 19.2842 20.7979L27.178 22.8302C27.2952 22.8603 27.415 22.8751 27.5331 22.8751C28.5674 22.8751 28.9427 21.9518 28.9427 21.4801V17.2951C28.9427 16.6948 28.5546 16.1621 27.9789 15.9721Z" fill="url(#paint0_linear_26_325)"/>
</g>
<defs>
<linearGradient id="paint0_linear_26_325" x1="14.8459" y1="0.555176" x2="14.8459" y2="22.8751" gradientUnits="userSpaceOnUse">
<stop stop-color="#FD3A84"/>
<stop offset="1" stop-color="#FFA68D"/>
</linearGradient>
<clipPath id="clip0_26_325">
<rect width="28.1937" height="22.32" fill="white" transform="translate(0.749023 0.555664)"/>
</clipPath>
</defs>
</svg>
