<svg width="36" height="29" viewBox="0 0 36 29" fill="none" xmlns="http://www.w3.org/2000/svg">
<g clip-path="url(#clip0_26_274)">
<path d="M15.4658 11.2983C14.4987 11.2983 13.7074 12.0813 13.7074 13.0383V17.3885C13.7074 17.8692 13.314 18.2585 12.8282 18.2585C12.3425 18.2585 11.949 17.8692 11.949 17.3885V13.2259C11.949 12.2803 12.2084 11.3516 12.7013 10.5403L16.9736 3.49353C17.4731 2.66918 17.2038 1.60067 16.3708 1.10583C15.5768 0.634385 14.5728 0.872013 14.0464 1.60665C14.0354 1.61915 14.0124 1.61807 14.003 1.63275L7.55965 11.1977C6.97939 12.059 6.67387 13.0601 6.67387 14.0922V18.4548L1.72182 20.0883C1.37167 20.2036 1.06709 20.4251 0.85128 20.7213C0.635474 21.0175 0.519403 21.3735 0.519531 21.7387V26.9589C0.519531 27.5472 0.987701 28.6989 2.27791 28.6989C2.42573 28.6989 2.57519 28.6804 2.72081 28.6429L12.5672 26.1079C15.3097 25.3319 17.2242 22.8202 17.2242 19.9986V13.0383C17.2242 12.0813 16.4329 11.2983 15.4658 11.2983ZM34.4849 20.0927L29.5328 18.4592V14.0965C29.5328 13.0644 29.2273 12.0634 28.647 11.202L22.2037 1.63764C22.1938 1.62296 22.1713 1.62459 22.1603 1.61154C21.6339 0.876907 20.6299 0.639279 19.8359 1.11073C19.0029 1.60502 18.7336 2.67407 19.2331 3.49843L23.5054 10.5451C23.9983 11.3565 24.2577 12.2852 24.2577 13.2308V17.3934C24.2577 17.8741 23.8642 18.2634 23.3785 18.2634C22.8927 18.2634 22.4993 17.8741 22.4993 17.3934V13.0432C22.4993 12.0862 21.708 11.3032 20.7409 11.3032C19.7738 11.3032 18.9825 12.0862 18.9825 13.0432V20.0035C18.9825 22.8251 20.897 25.3368 23.6395 26.1122L33.4859 28.6473C33.6321 28.6848 33.7815 28.7033 33.9288 28.7033C35.219 28.7033 35.6872 27.5516 35.6872 26.9632V21.743C35.6872 20.9942 35.2031 20.3298 34.4849 20.0927Z" fill="url(#paint0_linear_26_274)"/>
</g>
<defs>
<linearGradient id="paint0_linear_26_274" x1="18.1033" y1="0.862305" x2="18.1033" y2="28.7033" gradientUnits="userSpaceOnUse">
<stop stop-color="#FD3A84"/>
<stop offset="1" stop-color="#FFA68D"/>
</linearGradient>
<clipPath id="clip0_26_274">
<rect width="35.1676" height="27.841" fill="white" transform="translate(0.519531 0.862793)"/>
</clipPath>
</defs>
</svg>
