<svg width="30" height="24" viewBox="0 0 30 24" fill="none" xmlns="http://www.w3.org/2000/svg">
<g clip-path="url(#clip0_26_94)">
<path d="M12.463 8.68614C11.6609 8.68614 11.0047 9.33555 11.0047 10.1293V13.737C11.0047 14.1357 10.6784 14.4586 10.2755 14.4586C9.87266 14.4586 9.54637 14.1357 9.54637 13.737V10.2848C9.54637 9.5006 9.76147 8.73034 10.1702 8.05749L13.7135 2.21332C14.1277 1.52965 13.9044 0.643484 13.2135 0.233098C12.555 -0.157896 11.7224 0.0391795 11.2859 0.648445C11.2767 0.658817 11.2576 0.657915 11.2498 0.670091L5.90607 8.60271C5.42483 9.31706 5.17145 10.1473 5.17145 11.0032V14.6214L1.0645 15.9761C0.774099 16.0717 0.521495 16.2554 0.342517 16.5011C0.16354 16.7468 0.0672765 17.042 0.0673829 17.3448V21.6742C0.0673829 22.1621 0.455657 23.1173 1.52569 23.1173C1.64828 23.1173 1.77223 23.102 1.893 23.0708L10.0591 20.9684C12.3336 20.3249 13.9213 18.2418 13.9213 15.9017V10.1293C13.9213 9.33555 13.265 8.68614 12.463 8.68614ZM28.2364 15.9797L24.1294 14.625V11.0069C24.1294 10.1509 23.876 9.32066 23.3948 8.60632L18.051 0.67415C18.0428 0.661974 18.0241 0.663327 18.015 0.652503C17.5784 0.0432383 16.7458 -0.153837 16.0873 0.237157C15.3964 0.647092 15.1731 1.53371 15.5874 2.21738L19.1306 8.06155C19.5394 8.7344 19.7545 9.50466 19.7545 10.2889V13.7411C19.7545 14.1398 19.4282 14.4627 19.0253 14.4627C18.6225 14.4627 18.2962 14.1398 18.2962 13.7411V10.1333C18.2962 9.33961 17.64 8.6902 16.8379 8.6902C16.0358 8.6902 15.3796 9.33961 15.3796 10.1333V15.9058C15.3796 18.2459 16.9673 20.3289 19.2418 20.972L27.4079 23.0745C27.5291 23.1056 27.653 23.1209 27.7752 23.1209C28.8452 23.1209 29.2335 22.1657 29.2335 21.6778V17.3484C29.2335 16.7275 28.832 16.1764 28.2364 15.9797Z" fill="url(#paint0_linear_26_94)"/>
</g>
<defs>
<linearGradient id="paint0_linear_26_94" x1="14.6504" y1="0.0311279" x2="14.6504" y2="23.1209" gradientUnits="userSpaceOnUse">
<stop stop-color="#FD3A84"/>
<stop offset="1" stop-color="#FFA68D"/>
</linearGradient>
<clipPath id="clip0_26_94">
<rect width="29.1661" height="23.0898" fill="white" transform="translate(0.0673828 0.0313721)"/>
</clipPath>
</defs>
</svg>
