<svg width="30" height="24" viewBox="0 0 30 24" fill="none" xmlns="http://www.w3.org/2000/svg">
<g clip-path="url(#clip0_26_196)">
<path d="M12.463 8.68602C11.6609 8.68602 11.0047 9.33542 11.0047 10.1291V13.7369C11.0047 14.1356 10.6784 14.4585 10.2755 14.4585C9.87266 14.4585 9.54637 14.1356 9.54637 13.7369V10.2847C9.54637 9.50048 9.76147 8.73022 10.1702 8.05737L13.7135 2.2132C14.1277 1.52952 13.9044 0.643362 13.2135 0.232976C12.555 -0.158018 11.7224 0.0390574 11.2859 0.648323C11.2767 0.658695 11.2576 0.657793 11.2498 0.669969L5.90607 8.60259C5.42483 9.31693 5.17145 10.1472 5.17145 11.0031V14.6213L1.0645 15.976C0.774099 16.0716 0.521495 16.2553 0.342517 16.501C0.16354 16.7466 0.0672765 17.0418 0.0673829 17.3447V21.6741C0.0673829 22.162 0.455657 23.1172 1.52569 23.1172C1.64828 23.1172 1.77223 23.1018 1.893 23.0707L10.0591 20.9683C12.3336 20.3247 13.9213 18.2417 13.9213 15.9016V10.1291C13.9213 9.33542 13.265 8.68602 12.463 8.68602ZM28.2364 15.9796L24.1294 14.6249V11.0067C24.1294 10.1508 23.876 9.32054 23.3948 8.6062L18.051 0.674028C18.0428 0.661852 18.0241 0.663205 18.015 0.652381C17.5784 0.0431162 16.7458 -0.153959 16.0873 0.237035C15.3964 0.64697 15.1731 1.53358 15.5874 2.21726L19.1306 8.06142C19.5394 8.73428 19.7545 9.50454 19.7545 10.2888V13.741C19.7545 14.1396 19.4282 14.4625 19.0253 14.4625C18.6225 14.4625 18.2962 14.1396 18.2962 13.741V10.1332C18.2962 9.33948 17.64 8.69008 16.8379 8.69008C16.0358 8.69008 15.3796 9.33948 15.3796 10.1332V15.9057C15.3796 18.2458 16.9673 20.3288 19.2418 20.9719L27.4079 23.0743C27.5291 23.1054 27.653 23.1208 27.7752 23.1208C28.8452 23.1208 29.2335 22.1656 29.2335 21.6777V17.3483C29.2335 16.7273 28.832 16.1762 28.2364 15.9796Z" fill="url(#paint0_linear_26_196)"/>
</g>
<defs>
<linearGradient id="paint0_linear_26_196" x1="14.6504" y1="0.0310059" x2="14.6504" y2="23.1208" gradientUnits="userSpaceOnUse">
<stop stop-color="#FD3A84"/>
<stop offset="1" stop-color="#FFA68D"/>
</linearGradient>
<clipPath id="clip0_26_196">
<rect width="29.1661" height="23.0898" fill="white" transform="translate(0.0673828 0.03125)"/>
</clipPath>
</defs>
</svg>
