<svg width="106" height="48" viewBox="0 0 106 48" fill="none" xmlns="http://www.w3.org/2000/svg">
<circle cx="23.9869" cy="23.5787" r="23.4948" fill="#EFEFEF"/>
<circle cx="82.1364" cy="23.5787" r="23.4948" fill="#EFEFEF"/>
<path d="M17.2326 13.4465V31.8869L22.4051 27.748C22.8542 27.3887 23.4122 27.193 23.9874 27.193C24.5625 27.193 25.1205 27.3887 25.5697 27.748L30.7421 31.8853V13.4465H17.2326ZM16.3883 11.7578H31.5865C31.8104 11.7578 32.0252 11.8468 32.1835 12.0051C32.3419 12.1635 32.4308 12.3782 32.4308 12.6022V33.6432C32.4306 33.8021 32.3855 33.9577 32.3008 34.0921C32.2161 34.2265 32.0952 34.3343 31.952 34.4031C31.8088 34.4719 31.6491 34.4989 31.4912 34.4809C31.3334 34.463 31.1837 34.4009 31.0596 34.3018L24.5142 29.0668C24.3646 28.9474 24.1788 28.8823 23.9874 28.8823C23.7959 28.8823 23.6101 28.9474 23.4605 29.0668L16.9152 34.3018C16.791 34.4009 16.6414 34.463 16.4835 34.4809C16.3257 34.4989 16.1659 34.4719 16.0227 34.4031C15.8795 34.3343 15.7586 34.2265 15.6739 34.0921C15.5892 33.9577 15.5442 33.8021 15.5439 33.6432V12.6022C15.5439 12.3782 15.6329 12.1635 15.7912 12.0051C15.9496 11.8468 16.1644 11.7578 16.3883 11.7578Z" fill="#3C4852"/>
<path d="M75.3816 27.3784C77.48 27.3784 79.1811 25.6773 79.1811 23.5788C79.1811 21.4804 77.48 19.7793 75.3816 19.7793C73.2831 19.7793 71.582 21.4804 71.582 23.5788C71.582 25.6773 73.2831 27.3784 75.3816 27.3784Z" stroke="#3C4852" stroke-width="1.76211" stroke-linecap="round" stroke-linejoin="round"/>
<path d="M88.8913 34.1333C90.9898 34.1333 92.6909 32.4322 92.6909 30.3337C92.6909 28.2353 90.9898 26.5342 88.8913 26.5342C86.7929 26.5342 85.0918 28.2353 85.0918 30.3337C85.0918 32.4322 86.7929 34.1333 88.8913 34.1333Z" stroke="#3C4852" stroke-width="1.76211" stroke-linecap="round" stroke-linejoin="round"/>
<path d="M88.8913 20.6235C90.9898 20.6235 92.6909 18.9224 92.6909 16.824C92.6909 14.7255 90.9898 13.0244 88.8913 13.0244C86.7929 13.0244 85.0918 14.7255 85.0918 16.824C85.0918 18.9224 86.7929 20.6235 88.8913 20.6235Z" stroke="#3C4852" stroke-width="1.76211" stroke-linecap="round" stroke-linejoin="round"/>
<path d="M78.7588 21.8901L85.5135 18.5127M78.7588 25.2674L85.5135 28.6448L78.7588 25.2674Z" stroke="#3C4852" stroke-width="1.76211" stroke-linecap="round" stroke-linejoin="round"/>
</svg>
