<svg width="92" height="60" viewBox="0 0 92 60" fill="none" xmlns="http://www.w3.org/2000/svg">
<circle cx="29.3347" cy="29.7224" r="29.3064" fill="#EFEFEF"/>
<circle cx="61.8679" cy="29.7224" r="29.3064" fill="#EFEFEF"/>
<path d="M20.9091 17.0839V40.0858L27.361 34.923C27.9212 34.4748 28.6173 34.2307 29.3347 34.2307C30.0521 34.2307 30.7482 34.4748 31.3084 34.923L37.7603 40.0837V17.0839H20.9091ZM19.8559 14.9775H38.8135C39.0928 14.9775 39.3607 15.0885 39.5582 15.286C39.7557 15.4835 39.8667 15.7514 39.8667 16.0307V42.2764C39.8664 42.4746 39.8102 42.6687 39.7046 42.8363C39.5989 43.004 39.4481 43.1385 39.2695 43.2243C39.0908 43.3101 38.8916 43.3437 38.6947 43.3214C38.4978 43.299 38.3112 43.2216 38.1563 43.0979L29.9919 36.5681C29.8053 36.4191 29.5735 36.3379 29.3347 36.3379C29.0959 36.3379 28.8641 36.4191 28.6775 36.5681L20.5131 43.0979C20.3583 43.2216 20.1717 43.299 19.9747 43.3214C19.7778 43.3437 19.5786 43.3101 19.4 43.2243C19.2213 43.1385 19.0705 43.004 18.9649 42.8363C18.8592 42.6687 18.803 42.4746 18.8027 42.2764V16.0307C18.8027 15.7514 18.9137 15.4835 19.1112 15.286C19.3087 15.0885 19.5766 14.9775 19.8559 14.9775Z" fill="#3C4852"/>
<path d="M53.4425 34.4622C56.06 34.4622 58.1819 32.3403 58.1819 29.7228C58.1819 27.1053 56.06 24.9834 53.4425 24.9834C50.825 24.9834 48.7031 27.1053 48.7031 29.7228C48.7031 32.3403 50.825 34.4622 53.4425 34.4622Z" stroke="#3C4852" stroke-width="2.19798" stroke-linecap="round" stroke-linejoin="round"/>
<path d="M70.2941 42.8875C72.9116 42.8875 75.0335 40.7656 75.0335 38.1481C75.0335 35.5306 72.9116 33.4087 70.2941 33.4087C67.6766 33.4087 65.5547 35.5306 65.5547 38.1481C65.5547 40.7656 67.6766 42.8875 70.2941 42.8875Z" stroke="#3C4852" stroke-width="2.19798" stroke-linecap="round" stroke-linejoin="round"/>
<path d="M70.2941 26.0364C72.9116 26.0364 75.0335 23.9145 75.0335 21.297C75.0335 18.6795 72.9116 16.5576 70.2941 16.5576C67.6766 16.5576 65.5547 18.6795 65.5547 21.297C65.5547 23.9145 67.6766 26.0364 70.2941 26.0364Z" stroke="#3C4852" stroke-width="2.19798" stroke-linecap="round" stroke-linejoin="round"/>
<path d="M57.6553 27.6161L66.0809 23.4033M57.6553 31.8289L66.0809 36.0417L57.6553 31.8289Z" stroke="#3C4852" stroke-width="2.19798" stroke-linecap="round" stroke-linejoin="round"/>
</svg>
