<svg width="81" height="37" viewBox="0 0 81 37" fill="none" xmlns="http://www.w3.org/2000/svg">
<circle cx="18.6186" cy="18.2001" r="17.8764" fill="#EFEFEF"/>
<circle cx="62.8627" cy="18.2001" r="17.8764" fill="#EFEFEF"/>
<path d="M13.4792 10.4909V24.5217L17.4147 21.3724C17.7565 21.0991 18.1811 20.9502 18.6187 20.9502C19.0563 20.9502 19.4809 21.0991 19.8226 21.3724L23.7581 24.5204V10.4909H13.4792ZM12.8368 9.20605H24.4006C24.5709 9.20605 24.7343 9.27374 24.8548 9.39422C24.9753 9.5147 25.043 9.6781 25.043 9.84849V25.8579C25.0428 25.9788 25.0085 26.0972 24.9441 26.1995C24.8797 26.3017 24.7877 26.3838 24.6787 26.4361C24.5697 26.4884 24.4482 26.509 24.3281 26.4953C24.208 26.4817 24.0941 26.4344 23.9997 26.359L19.0195 22.3759C18.9057 22.285 18.7643 22.2355 18.6187 22.2355C18.473 22.2355 18.3316 22.285 18.2178 22.3759L13.2376 26.359C13.1432 26.4344 13.0294 26.4817 12.9092 26.4953C12.7891 26.509 12.6676 26.4884 12.5586 26.4361C12.4497 26.3838 12.3577 26.3017 12.2932 26.1995C12.2288 26.0972 12.1945 25.9788 12.1943 25.8579V9.84849C12.1943 9.6781 12.262 9.5147 12.3825 9.39422C12.503 9.27374 12.6664 9.20605 12.8368 9.20605Z" fill="#3C4852"/>
<path d="M57.724 21.0915C59.3206 21.0915 60.6149 19.7971 60.6149 18.2005C60.6149 16.6039 59.3206 15.3096 57.724 15.3096C56.1273 15.3096 54.833 16.6039 54.833 18.2005C54.833 19.7971 56.1273 21.0915 57.724 21.0915Z" stroke="#3C4852" stroke-width="1.34073" stroke-linecap="round" stroke-linejoin="round"/>
<path d="M68.0033 26.2306C69.5999 26.2306 70.8942 24.9363 70.8942 23.3397C70.8942 21.7431 69.5999 20.4487 68.0033 20.4487C66.4066 20.4487 65.1123 21.7431 65.1123 23.3397C65.1123 24.9363 66.4066 26.2306 68.0033 26.2306Z" stroke="#3C4852" stroke-width="1.34073" stroke-linecap="round" stroke-linejoin="round"/>
<path d="M68.0033 15.9518C69.5999 15.9518 70.8942 14.6575 70.8942 13.0609C70.8942 11.4642 69.5999 10.1699 68.0033 10.1699C66.4066 10.1699 65.1123 11.4642 65.1123 13.0609C65.1123 14.6575 66.4066 15.9518 68.0033 15.9518Z" stroke="#3C4852" stroke-width="1.34073" stroke-linecap="round" stroke-linejoin="round"/>
<path d="M60.2939 16.9154L65.4334 14.3457M60.2939 19.4852L65.4334 22.0549L60.2939 19.4852Z" stroke="#3C4852" stroke-width="1.34073" stroke-linecap="round" stroke-linejoin="round"/>
</svg>
