<svg width="87" height="87" viewBox="0 0 87 87" fill="none" xmlns="http://www.w3.org/2000/svg">
<circle cx="43" cy="43" r="38" fill="#3C4852"/>
<path d="M53.8379 59.7059C53.5651 59.707 53.296 59.6426 53.0532 59.5182L44.3532 54.9635L35.6532 59.5182C35.3707 59.6668 35.0522 59.7331 34.7339 59.7096C34.4156 59.6862 34.1102 59.5739 33.8525 59.3855C33.5949 59.1971 33.3952 58.9403 33.2763 58.6441C33.1573 58.3479 33.1239 58.0243 33.1797 57.71L34.8856 48.1059L27.8573 41.2824C27.6381 41.0635 27.4825 40.7891 27.4074 40.4886C27.3322 40.1881 27.3404 39.8727 27.4309 39.5765C27.5297 39.2733 27.7116 39.0039 27.9559 38.7989C28.2001 38.5938 28.4969 38.4613 28.8126 38.4165L38.5362 37.0006L42.8179 28.2494C42.9576 27.961 43.1757 27.7178 43.4473 27.5476C43.7188 27.3774 44.0328 27.2871 44.3532 27.2871C44.6737 27.2871 44.9877 27.3774 45.2592 27.5476C45.5307 27.7178 45.7488 27.961 45.8885 28.2494L50.2215 36.9835L59.945 38.3994C60.2607 38.4443 60.5575 38.5768 60.8018 38.7818C61.046 38.9868 61.2279 39.2562 61.3268 39.5594C61.4173 39.8557 61.4254 40.171 61.3503 40.4715C61.2751 40.7721 61.1196 41.0465 60.9003 41.2653L53.872 48.0888L55.5779 57.6929C55.6388 58.0128 55.6069 58.3433 55.486 58.6456C55.3651 58.9479 55.1602 59.2092 54.8956 59.3988C54.5867 59.6153 54.2147 59.7233 53.8379 59.7059Z" fill="white"/>
</svg>
