<svg width="106" height="48" viewBox="0 0 106 48" fill="none" xmlns="http://www.w3.org/2000/svg">
<circle cx="24.068" cy="23.5787" r="23.4948" fill="#EFEFEF"/>
<circle cx="82.2174" cy="23.5787" r="23.4948" fill="#EFEFEF"/>
<path d="M17.3137 13.4465V31.8869L22.4861 27.748C22.9353 27.3887 23.4933 27.193 24.0684 27.193C24.6436 27.193 25.2016 27.3887 25.6507 27.748L30.8232 31.8853V13.4465H17.3137ZM16.4693 11.7578H31.6675C31.8915 11.7578 32.1062 11.8468 32.2646 12.0051C32.4229 12.1635 32.5119 12.3782 32.5119 12.6022V33.6432C32.5116 33.8021 32.4666 33.9577 32.3819 34.0921C32.2972 34.2265 32.1763 34.3343 32.0331 34.4031C31.8899 34.4719 31.7301 34.4989 31.5723 34.4809C31.4144 34.463 31.2648 34.4009 31.1406 34.3018L24.5953 29.0668C24.4457 28.9474 24.2599 28.8823 24.0684 28.8823C23.877 28.8823 23.6912 28.9474 23.5416 29.0668L16.9962 34.3018C16.8721 34.4009 16.7225 34.463 16.5646 34.4809C16.4067 34.4989 16.247 34.4719 16.1038 34.4031C15.9606 34.3343 15.8397 34.2265 15.755 34.0921C15.6703 33.9577 15.6252 33.8021 15.625 33.6432V12.6022C15.625 12.3782 15.714 12.1635 15.8723 12.0051C16.0306 11.8468 16.2454 11.7578 16.4693 11.7578Z" fill="#3C4852"/>
<path d="M75.4626 27.3784C77.5611 27.3784 79.2622 25.6773 79.2622 23.5788C79.2622 21.4804 77.5611 19.7793 75.4626 19.7793C73.3642 19.7793 71.6631 21.4804 71.6631 23.5788C71.6631 25.6773 73.3642 27.3784 75.4626 27.3784Z" stroke="#3C4852" stroke-width="1.76211" stroke-linecap="round" stroke-linejoin="round"/>
<path d="M88.9724 34.1333C91.0708 34.1333 92.7719 32.4322 92.7719 30.3337C92.7719 28.2353 91.0708 26.5342 88.9724 26.5342C86.874 26.5342 85.1729 28.2353 85.1729 30.3337C85.1729 32.4322 86.874 34.1333 88.9724 34.1333Z" stroke="#3C4852" stroke-width="1.76211" stroke-linecap="round" stroke-linejoin="round"/>
<path d="M88.9724 20.6235C91.0708 20.6235 92.7719 18.9224 92.7719 16.824C92.7719 14.7255 91.0708 13.0244 88.9724 13.0244C86.874 13.0244 85.1729 14.7255 85.1729 16.824C85.1729 18.9224 86.874 20.6235 88.9724 20.6235Z" stroke="#3C4852" stroke-width="1.76211" stroke-linecap="round" stroke-linejoin="round"/>
<path d="M78.8398 21.8901L85.5946 18.5127M78.8398 25.2674L85.5946 28.6448L78.8398 25.2674Z" stroke="#3C4852" stroke-width="1.76211" stroke-linecap="round" stroke-linejoin="round"/>
</svg>
