<svg width="76" height="76" viewBox="0 0 76 76" fill="none" xmlns="http://www.w3.org/2000/svg">
<circle cx="38" cy="38" r="38" fill="#BE0006"/>
<path fill-rule="evenodd" clip-rule="evenodd" d="M44.4199 21.6693C44.2733 21.3758 44.066 21.1168 43.8117 20.9096C43.5574 20.7024 43.2619 20.5517 42.9449 20.4676C42.6278 20.3834 42.2965 20.3676 41.9729 20.4214C41.6493 20.4751 41.3408 20.5971 41.068 20.7793C40.2705 21.311 39.6487 22.0692 39.1679 22.8135C38.6732 23.5764 38.2363 24.4617 37.8502 25.3933C37.0781 27.2518 36.4309 29.4802 35.9085 31.7133C35.2767 34.4421 34.8035 37.2053 34.4914 39.9889C33.5509 39.3825 32.7952 38.5293 32.307 37.5224C31.5487 35.9505 31.3869 33.9763 31.3869 31.3873C31.3868 30.9302 31.2512 30.4834 30.9972 30.1033C30.7432 29.7233 30.3822 29.4271 29.9599 29.2521C29.5375 29.0772 29.0728 29.0314 28.6245 29.1206C28.1761 29.2097 27.7643 29.4298 27.441 29.753C25.9365 31.2543 24.7434 33.0379 23.9302 35.0016C23.1169 36.9652 22.6996 39.0702 22.7022 41.1955C22.7024 43.8565 23.3588 46.4763 24.6133 48.823C25.8678 51.1697 27.6816 53.1708 29.8942 54.6491C32.1068 56.1273 34.6497 57.0371 37.2979 57.2979C39.946 57.5586 42.6176 57.1623 45.076 56.1439C47.5344 55.1256 49.7037 53.5167 51.3918 51.4598C53.0799 49.4028 54.2347 46.9613 54.7539 44.3515C55.2731 41.7417 55.1406 39.0441 54.3683 36.4977C53.5959 33.9513 52.2075 31.6347 50.3261 29.753C48.9576 28.3868 48.0607 27.4761 47.21 26.3619C46.3709 25.2615 45.5364 23.9046 44.4199 21.6693ZM43.7842 50.7194C42.8143 51.6881 41.5792 52.3476 40.2348 52.6146C38.8903 52.8817 37.4969 52.7444 36.2305 52.22C34.9641 51.6956 33.8814 50.8077 33.1193 49.6684C32.3572 48.5291 31.9499 47.1895 31.9487 45.8188C31.9487 45.8188 33.9806 46.9746 37.7277 46.9746C37.7277 44.663 38.8835 37.7281 40.6172 36.5723C41.773 38.8839 42.4342 39.5612 43.7865 40.9158C44.4315 41.5589 44.9431 42.3231 45.2918 43.1645C45.6405 44.0059 45.8195 44.908 45.8184 45.8188C45.8195 46.7296 45.6405 47.6316 45.2918 48.4731C44.9431 49.3145 44.4315 50.0787 43.7865 50.7217L43.7842 50.7194Z" fill="white"/>
</svg>
