<svg width="76" height="76" viewBox="0 0 76 76" fill="none" xmlns="http://www.w3.org/2000/svg">
<circle cx="38" cy="38" r="38" fill="#3C4852"/>
<path d="M38.4788 17.25C26.7488 17.25 17.25 26.77 17.25 38.5C17.25 50.23 26.7488 59.75 38.4788 59.75C50.23 59.75 59.75 50.23 59.75 38.5C59.75 26.77 50.23 17.25 38.4788 17.25ZM47 47C46.8034 47.197 46.5699 47.3533 46.3128 47.4599C46.0558 47.5666 45.7802 47.6214 45.5019 47.6214C45.2236 47.6214 44.948 47.5666 44.6909 47.4599C44.4339 47.3533 44.2003 47.197 44.0038 47L37.0125 40.0088C36.8117 39.8119 36.652 39.5773 36.5425 39.3183C36.4331 39.0593 36.3762 38.7812 36.375 38.5V30C36.375 28.8313 37.3313 27.875 38.5 27.875C39.6688 27.875 40.625 28.8313 40.625 30V37.6288L47 44.0038C47.8288 44.8325 47.8288 46.1713 47 47Z" fill="white"/>
</svg>
