<svg width="81" height="37" viewBox="0 0 81 37" fill="none" xmlns="http://www.w3.org/2000/svg">
<circle cx="18.5258" cy="18.2001" r="17.8764" fill="#EFEFEF"/>
<circle cx="62.7699" cy="18.2001" r="17.8764" fill="#EFEFEF"/>
<path d="M13.3864 10.4909V24.5217L17.322 21.3724C17.6637 21.0991 18.0883 20.9502 18.5259 20.9502C18.9635 20.9502 19.3881 21.0991 19.7298 21.3724L23.6654 24.5204V10.4909H13.3864ZM12.744 9.20605H24.3078C24.4782 9.20605 24.6416 9.27374 24.7621 9.39422C24.8825 9.5147 24.9502 9.6781 24.9502 9.84849V25.8579C24.95 25.9788 24.9158 26.0972 24.8513 26.1995C24.7869 26.3017 24.6949 26.3838 24.5859 26.4361C24.477 26.4884 24.3554 26.509 24.2353 26.4953C24.1152 26.4817 24.0014 26.4344 23.9069 26.359L18.9268 22.3759C18.8129 22.285 18.6716 22.2355 18.5259 22.2355C18.3802 22.2355 18.2389 22.285 18.125 22.3759L13.1449 26.359C13.0504 26.4344 12.9366 26.4817 12.8165 26.4953C12.6963 26.509 12.5748 26.4884 12.4659 26.4361C12.3569 26.3838 12.2649 26.3017 12.2005 26.1995C12.136 26.0972 12.1017 25.9788 12.1016 25.8579V9.84849C12.1016 9.6781 12.1692 9.5147 12.2897 9.39422C12.4102 9.27374 12.5736 9.20605 12.744 9.20605Z" fill="#3C4852"/>
<path d="M57.6312 21.0915C59.2278 21.0915 60.5221 19.7971 60.5221 18.2005C60.5221 16.6039 59.2278 15.3096 57.6312 15.3096C56.0346 15.3096 54.7402 16.6039 54.7402 18.2005C54.7402 19.7971 56.0346 21.0915 57.6312 21.0915Z" stroke="#3C4852" stroke-width="1.34073" stroke-linecap="round" stroke-linejoin="round"/>
<path d="M67.9105 26.2306C69.5071 26.2306 70.8014 24.9363 70.8014 23.3397C70.8014 21.7431 69.5071 20.4487 67.9105 20.4487C66.3139 20.4487 65.0195 21.7431 65.0195 23.3397C65.0195 24.9363 66.3139 26.2306 67.9105 26.2306Z" stroke="#3C4852" stroke-width="1.34073" stroke-linecap="round" stroke-linejoin="round"/>
<path d="M67.9105 15.9518C69.5071 15.9518 70.8014 14.6575 70.8014 13.0609C70.8014 11.4642 69.5071 10.1699 67.9105 10.1699C66.3139 10.1699 65.0195 11.4642 65.0195 13.0609C65.0195 14.6575 66.3139 15.9518 67.9105 15.9518Z" stroke="#3C4852" stroke-width="1.34073" stroke-linecap="round" stroke-linejoin="round"/>
<path d="M60.2012 16.9154L65.3406 14.3457M60.2012 19.4852L65.3406 22.0549L60.2012 19.4852Z" stroke="#3C4852" stroke-width="1.34073" stroke-linecap="round" stroke-linejoin="round"/>
</svg>
