<svg width="432" height="352" viewBox="0 0 432 352" fill="none" xmlns="http://www.w3.org/2000/svg">
<path fill-rule="evenodd" clip-rule="evenodd" d="M1.02254 42.3604V345.322C1.02254 348.566 3.65227 351.195 6.89622 351.195H425.617C428.861 351.195 431.491 348.566 431.491 345.322V39.3025C431.491 36.0585 428.861 33.4288 425.617 33.4288H138.272C136.128 33.3346 134.113 33.2866 132.202 33.241C118.186 32.907 109.782 32.7067 97.3511 15.3919C80.9048 -7.51547 53.2985 -1.05441 43.3132 15.3919C35.6297 28.0471 23.425 32.0077 14.1923 33.4288H6.89623C4.82157 33.4288 2.99814 34.5044 1.95317 36.1284C0.832131 37.5166 0.913112 39.4294 0.987194 41.1793C1.00435 41.5846 1.02114 41.9811 1.02254 42.3604Z" fill="white"/>
</svg>
