<svg width="706" height="363" viewBox="0 0 706 363" fill="none" xmlns="http://www.w3.org/2000/svg">
<path fill-rule="evenodd" clip-rule="evenodd" d="M0.418719 70.7428V43.3996C0.418721 42.9914 0.400599 42.5634 0.382059 42.1255C0.305415 40.3151 0.221634 38.3361 1.38164 36.9C2.46269 35.2202 4.34891 34.1076 6.49499 34.1076H14.0429C23.594 32.6375 36.2194 28.5402 44.1679 15.4487C54.4975 -1.56483 83.056 -8.24873 100.07 15.4487C112.929 33.3607 121.623 33.5679 136.123 33.9134C138.099 33.9605 140.184 34.0102 142.401 34.1076H699.797C703.153 34.1076 705.874 36.8281 705.874 40.1839V356.758C705.874 360.113 703.153 362.834 699.798 362.834H6.49501C3.13918 362.834 0.418721 360.113 0.418721 356.758L0.418719 126.037V70.7428Z" fill="white"/>
</svg>
