<svg width="538" height="438" viewBox="0 0 538 438" fill="none" xmlns="http://www.w3.org/2000/svg">
<path fill-rule="evenodd" clip-rule="evenodd" d="M1.00857 85.3631V52.3934C1.00857 51.9013 0.986717 51.3852 0.964361 50.8572C0.871915 48.6735 0.770856 46.2864 2.17108 44.5547C3.47478 42.5303 5.74847 41.1897 8.3353 41.1897H17.435C28.9515 39.4172 44.1757 34.4771 53.76 18.6911C66.2152 -1.82333 100.65 -9.88258 121.165 18.6911C136.671 40.2889 147.154 40.5387 164.637 40.9553C167.021 41.0121 169.536 41.0721 172.211 41.1897H530.63C534.676 41.1897 537.956 44.4699 537.956 48.5163V430.232C537.956 434.278 534.676 437.558 530.63 437.558H8.33533C4.28896 437.558 1.00871 434.278 1.00871 430.232V152.035H1.00857V85.3631Z" fill="white"/>
</svg>
