<svg width="431" height="352" viewBox="0 0 431 352" fill="none" xmlns="http://www.w3.org/2000/svg">
<path fill-rule="evenodd" clip-rule="evenodd" d="M0.103687 68.8425V42.4109C0.103689 42.0164 0.0861711 41.6026 0.0682491 41.1793C-0.0058458 39.4291 -0.086842 37.5159 1.0348 36.1277C2.07985 34.5041 3.90305 33.4288 5.9774 33.4288H13.2734C22.5061 32.0077 34.7107 28.0471 42.3942 15.3919C52.3795 -1.05441 79.9859 -7.51547 96.4322 15.3919C108.863 32.7067 117.268 32.907 131.284 33.241C133.194 33.2866 135.21 33.3346 137.353 33.4288H424.698C427.942 33.4288 430.572 36.0585 430.572 39.3025V345.322C430.572 348.566 427.942 351.195 424.698 351.195H5.97739C2.73344 351.195 0.103711 348.566 0.103711 345.322V122.293H0.103687V68.8425Z" fill="white"/>
</svg>
