<svg width="23" height="22" viewBox="0 0 23 22" fill="none" xmlns="http://www.w3.org/2000/svg">
<path d="M15.3991 3.16895C13.6945 3.16895 12.2379 4.38399 11.4376 5.22166C10.6374 4.38399 9.18402 3.16895 7.4802 3.16895C4.54344 3.16895 2.49316 5.21597 2.49316 8.14622C2.49316 11.3749 5.03954 13.4618 7.50297 15.4804C8.66596 16.4344 9.86962 17.4201 10.7927 18.5131C10.948 18.6961 11.1757 18.8018 11.4148 18.8018H11.462C11.7019 18.8018 11.9288 18.6953 12.0834 18.5131C13.0081 17.4201 14.2109 16.4335 15.3747 15.4804C17.8373 13.4626 20.3853 11.3758 20.3853 8.14622C20.3853 5.21597 18.3351 3.16895 15.3991 3.16895Z" fill="#7D6B7D"/>
</svg>
