<svg width="18" height="17" viewBox="0 0 18 17" fill="none" xmlns="http://www.w3.org/2000/svg">
<path d="M12.0394 2.98584C10.7424 2.98584 9.63417 3.91032 9.02527 4.54769C8.41637 3.91032 7.31058 2.98584 6.0142 2.98584C3.77972 2.98584 2.21973 4.54335 2.21973 6.77288C2.21973 9.22951 4.15718 10.8173 6.03152 12.3532C6.9164 13.0791 7.83223 13.829 8.53456 14.6607C8.65275 14.7999 8.82602 14.8804 9.00794 14.8804H9.04383C9.22638 14.8804 9.39902 14.7993 9.51659 14.6607C10.2202 13.829 11.1354 13.0784 12.0209 12.3532C13.8946 10.818 15.8333 9.23013 15.8333 6.77288C15.8333 4.54335 14.2733 2.98584 12.0394 2.98584Z" fill="#7D6B7D"/>
</svg>
