<svg width="23" height="23" viewBox="0 0 23 23" fill="none" xmlns="http://www.w3.org/2000/svg">
<path d="M15.1743 3.59741C13.4109 3.59741 11.9041 4.85436 11.0762 5.72093C10.2483 4.85436 8.74486 3.59741 6.98228 3.59741C3.94423 3.59741 1.82324 5.71504 1.82324 8.74635C1.82324 12.0864 4.45745 14.2453 7.00583 16.3335C8.20894 17.3203 9.4541 18.34 10.409 19.4708C10.5697 19.6601 10.8053 19.7695 11.0526 19.7695H11.1014C11.3496 19.7695 11.5844 19.6592 11.7442 19.4708C12.7008 18.34 13.9451 17.3195 15.1491 16.3335C17.6966 14.2461 20.3325 12.0873 20.3325 8.74635C20.3325 5.71504 18.2115 3.59741 15.1743 3.59741Z" fill="#7D6B7D"/>
</svg>
