<svg width="28" height="27" viewBox="0 0 28 27" fill="none" xmlns="http://www.w3.org/2000/svg">
<path d="M18.9792 4.479C16.8529 4.479 15.036 5.99459 14.0378 7.03948C13.0396 5.99459 11.2267 4.479 9.10147 4.479C5.43829 4.479 2.88086 7.03238 2.88086 10.6874C2.88086 14.7148 6.05711 17.3179 9.12988 19.8358C10.5805 21.0257 12.0819 22.2552 13.2333 23.6187C13.4271 23.8469 13.7111 23.9788 14.0094 23.9788H14.0682C14.3675 23.9788 14.6505 23.8459 14.8433 23.6187C15.9967 22.2552 17.4971 21.0247 18.9488 19.8358C22.0205 17.3189 25.1988 14.7158 25.1988 10.6874C25.1988 7.03238 22.6414 4.479 18.9792 4.479Z" fill="#7D6B7D"/>
</svg>
