<svg width="17" height="17" viewBox="0 0 17 17" fill="none" xmlns="http://www.w3.org/2000/svg">
<path d="M11.1312 2.98584C9.83423 2.98584 8.72596 3.91032 8.11707 4.54769C7.50817 3.91032 6.40238 2.98584 5.10599 2.98584C2.87151 2.98584 1.31152 4.54335 1.31152 6.77288C1.31152 9.22951 3.24898 10.8173 5.12332 12.3532C6.0082 13.0791 6.92402 13.829 7.62636 14.6607C7.74455 14.7999 7.91781 14.8804 8.09974 14.8804H8.13563C8.31818 14.8804 8.49082 14.7993 8.60839 14.6607C9.31196 13.829 10.2272 13.0784 11.1127 12.3532C12.9864 10.818 14.9251 9.23013 14.9251 6.77288C14.9251 4.54335 13.3651 2.98584 11.1312 2.98584Z" fill="#7D6B7D"/>
</svg>
