<svg width="23" height="23" viewBox="0 0 23 23" fill="none" xmlns="http://www.w3.org/2000/svg">
<path d="M15.1753 3.59741C13.4119 3.59741 11.905 4.85436 11.0772 5.72093C10.2493 4.85436 8.74584 3.59741 6.98325 3.59741C3.94521 3.59741 1.82422 5.71504 1.82422 8.74635C1.82422 12.0864 4.45842 14.2453 7.00681 16.3335C8.20991 17.3203 9.45508 18.34 10.41 19.4708C10.5707 19.6601 10.8063 19.7695 11.0536 19.7695H11.1024C11.3506 19.7695 11.5853 19.6592 11.7452 19.4708C12.7018 18.34 13.9461 17.3195 15.15 16.3335C17.6976 14.2461 20.3335 12.0873 20.3335 8.74635C20.3335 5.71504 18.2125 3.59741 15.1753 3.59741Z" fill="#7D6B7D"/>
</svg>
