<svg width="22" height="22" viewBox="0 0 22 22" fill="none" xmlns="http://www.w3.org/2000/svg">
<path d="M15.3181 3.16895C13.6134 3.16895 12.1568 4.38399 11.3566 5.22166C10.5563 4.38399 9.10297 3.16895 7.39914 3.16895C4.46239 3.16895 2.41211 5.21597 2.41211 8.14622C2.41211 11.3749 4.95849 13.4618 7.42192 15.4804C8.58491 16.4344 9.78856 17.4201 10.7116 18.5131C10.867 18.6961 11.0947 18.8018 11.3338 18.8018H11.381C11.6209 18.8018 11.8478 18.6953 12.0023 18.5131C12.927 17.4201 14.1299 16.4335 15.2937 15.4804C17.7563 13.4626 20.3043 11.3758 20.3043 8.14622C20.3043 5.21597 18.254 3.16895 15.3181 3.16895Z" fill="#7D6B7D"/>
</svg>
